Coordinates
version=1
nRows=5
nColumns=63
inDegrees=yes

Units are S.I. units (second, meters, Newtons, ...)
If the header above contains a line with 'inDegrees', this indicates whether rotational values are in degrees (yes) or radians (no).

endheader
time	pelvis_tilt	pelvis_list	pelvis_rotation	pelvis_tx	pelvis_ty	pelvis_tz	hip_flexion_r	hip_adduction_r	hip_rotation_r	knee_angle_r	knee_angle_r_beta	ankle_angle_r	subtalar_angle_r	mtp_angle_r	hip_flexion_l	hip_adduction_l	hip_rotation_l	knee_angle_l	knee_angle_l_beta	ankle_angle_l	subtalar_angle_l	mtp_angle_l	L5_S1_Flex_Ext	L5_S1_Lat_Bending	L5_S1_axial_rotation	L4_L5_Flex_Ext	L4_L5_Lat_Bending	L4_L5_axial_rotation	L3_L4_Flex_Ext	L3_L4_Lat_Bending	L3_L4_axial_rotation	L2_L3_Flex_Ext	L2_L3_Lat_Bending	L2_L3_axial_rotation	L1_L2_Flex_Ext	L1_L2_Lat_Bending	L1_L2_axial_rotation	L1_T12_Flex_Ext	L1_T12_Lat_Bending	L1_T12_axial_rotation	Abs_r3	Abs_r2	Abs_r1	Abs_t1	Abs_t2	neck_flexion	neck_bending	neck_rotation	arm_flex_r	arm_add_r	arm_rot_r	elbow_flex_r	pro_sup_r	wrist_flex_r	wrist_dev_r	arm_flex_l	arm_add_l	arm_rot_l	elbow_flex_l	pro_sup_l	wrist_flex_l	wrist_dev_l
      0.94915254	      0.20034177	     -3.57437870	     94.14288117	      0.28992575	      0.75530317	      0.62923739	     -3.62512191	      1.15084663	      3.66726494	      1.34881366	      0.02354124	     16.19283231	    -10.30714502	      0.00000000	     -2.74479900	     -3.69274121	     16.46551213	      1.04779373	      0.01828745	     15.76717752	     -6.63946560	      0.00000000	      0.18037529	      0.19420576	     -0.43409872	      0.33497495	      0.25829367	     -0.46122989	      0.29633856	      0.47219190	     -0.46122989	      0.20615092	      0.47219190	     -0.37983638	      0.16749649	      0.39602440	     -0.35270521	      0.10306644	      0.30082473	     -0.32557404	      1.28840266	      2.19689445	     -2.41432685	      0.00000000	      0.00000000	     28.20571380	     -0.15014703	     -8.36218984	     10.81036847	    -11.85857026	    144.96872514	      4.86906554	      8.61107943	     -0.93359835	    -11.02840919	      3.06114928	    -12.29554332	    165.90828633	      4.15593949	     10.09903137	    -15.56337159	     -8.17745456
      0.96610169	      0.18849105	     -3.74785241	     93.59498526	      0.29046261	      0.75517200	      0.62945910	     -3.35838828	      1.06183158	      4.05884413	      1.42224875	      0.02482292	     16.45325410	     -9.84090325	      0.00000000	     -2.58018407	     -3.63406252	     16.03346556	      1.12520921	      0.01963861	     15.97957965	     -6.58391267	      0.00000000	      0.16665582	      0.20411312	     -0.30145998	      0.30949652	      0.27147044	     -0.32030123	      0.27379885	      0.49628063	     -0.32030123	      0.19047094	      0.49628063	     -0.26377748	      0.15475659	      0.41622746	     -0.24493623	      0.09522714	      0.31617122	     -0.22609498	      1.19040586	      2.30896838	     -1.67662996	      0.00000000	      0.00000000	     28.21341725	     -0.38418863	     -8.60422524	     10.81633639	    -11.95253480	    149.17845003	      4.40953377	     10.27388242	     -1.57910013	    -10.71904112	      3.05670674	    -12.21927809	    162.98879371	      4.32686281	      7.50622197	    -14.76584462	     -9.79058855
      0.98305085	      0.23878869	     -3.97175747	     93.04698772	      0.29077235	      0.75518043	      0.62989836	     -2.99039218	      1.02492103	      4.26706826	      1.54198419	      0.02691270	     16.68684409	     -9.39056109	      0.00000000	     -2.28801887	     -3.60181622	     15.33825985	      1.30151442	      0.02271571	     15.99029028	     -6.49428360	      0.00000000	      0.15443630	      0.22738181	     -0.18308096	      0.28680364	      0.30241781	     -0.19452352	      0.25372339	      0.55285614	     -0.19452352	      0.17650524	      0.55285614	     -0.16019584	      0.14340954	      0.46367699	     -0.14875328	      0.08824490	      0.35221443	     -0.13731072	      1.10312301	      2.57218853	     -1.01824138	      0.00000000	      0.00000000	     28.21946740	     -0.74254888	     -8.91867880	     10.85842523	    -12.08074772	    152.21294423	      4.08942385	     10.89560003	     -1.68371063	    -10.18583754	      3.22700176	    -12.06218327	    159.06884136	      4.72186393	      5.48719901	    -14.56695604	    -11.68457291
      1.00000000	      0.19436507	     -4.12810463	     93.08354951	      0.29033754	      0.75540797	      0.63048756	     -2.81540446	      0.91520894	      4.23083474	      1.48870038	      0.02598272	     16.76593577	     -9.41808114	      0.00000000	     -2.05052636	     -3.50030402	     15.29985728	      1.32304348	      0.02309146	     15.96146014	     -6.49921013	      0.00000000	      0.13000737	      0.24043935	     -0.15897088	      0.24143669	      0.31978433	     -0.16890656	      0.21358911	      0.58460423	     -0.16890656	      0.14858543	      0.58460423	     -0.13909952	      0.12072485	      0.49030392	     -0.12916384	      0.07428621	      0.37244055	     -0.11922816	      0.92862966	      2.71989798	     -0.88414835	      0.00000000	      0.00000000	     28.21944459	     -0.76559699	     -8.90678242	     10.83898479	    -12.29331291	    152.27612795	      4.08577088	     10.90765832	     -1.67937778	    -10.11393173	      3.64950461	    -11.67571380	    158.83107300	      4.42659849	      5.32068625	    -14.66545121	    -11.82854832
      1.01694915	      0.35529191	     -4.54404874	     92.10729914	      0.29100250	      0.75537308	      0.63098041	     -2.11476141	      0.95324129	      3.65759817	      1.77574096	      0.03099253	     17.28679105	     -7.52024584	      0.00000000	     -1.51219569	     -3.55165292	     13.58517142	      1.70675399	      0.02978848	     16.26508596	     -5.58106184	      0.00000000	      0.15348328	      0.28151269	     -0.01432863	      0.28503381	      0.37441188	     -0.01522417	      0.25215769	      0.68446996	     -0.01522417	      0.17541605	      0.68446996	     -0.01253755	      0.14252458	      0.57406068	     -0.01164201	      0.08770035	      0.43606316	     -0.01074647	      1.09631575	      3.18452789	     -0.07969153	      0.00000000	      0.00000000	     28.23823193	     -1.52731369	     -9.03902987	     10.87293593	    -12.47711968	    154.44418739	      3.88499311	      8.70547015	     -1.33088281	     -9.92886861	      3.89371028	    -11.78235387	    147.23025588	      6.22164484	      6.31260729	    -15.49304871	    -15.91800546
